<svg xmlns="http://www.w3.org/2000/svg" width="512px" height="512px" viewBox="0 0 512 512"
    data-bbox="48 207.27826177870858 416 97.44347644258286" style="overflow: visible;">
    <defs id="_NVSUhYTtPwk97Q54rUMxx"
        transform="matrix(1.0932377576828003, 0, 0, 1.0932377576828003, -18.740373611450195, 151.77517700195312)"
        data-uid="o-438ef687d2f442b8a402582a80ee31e2">
        <linearGradient id="o-5b8a788c4eb54f0fa627d1822ad41dc7" x1="0" y1="0.5" x2="1" y2="0.5"
            data-uid="o-d725227a79d449f0bd24bdf8d7848577">
            <stop id="_3m4cezOni4tb2P8V2Ksai" offset="0%" stop-color="rgb(251,120,81)"
                stop-opacity="1" data-uid="o-267d4a7b726d4f6aa20fe904fc6251a8"></stop>
            <stop id="_j0VHyOT3q9pLPviRbj7a9" offset="100%" stop-color="rgb(162,135,122)"
                stop-opacity="1" data-uid="o-84f5eec21bfd46a8bcf2cdc54d12810e"></stop>
        </linearGradient>
    </defs>
    <path id="_pWCOG6xWHbr3Mm2K8-BV5"
        d="M84.9793092 79.8511531 C84.9793092 85.7394528 80.1897565 90.5290056 74.3014568 90.5290056 L31.4559172 90.5290056 L27.428669 86.5956482 L27.8925347 86.5956482 L69.0256834 86.5956482 C75.6528149 86.5956482 81.0448341 81.2025112 81.0448341 74.5753797 L81.0448341 24.9540481 L82.3917212 24.9540481 C83.8179684 24.9540481 84.9793092 26.1153889 84.9793092 27.5427539 L84.9793092 79.8511531 Z M18.3369018 78.39808 L65.7898012 78.39808 C69.6818018 78.39808 72.8483836 75.2314982 72.8483836 71.3394975 L72.8483836 17.667445 L73.9873694 17.667445 C75.4136167 17.667445 76.5738397 18.8287858 76.5738397 20.255033 L76.5738397 74.5753797 C76.5738397 78.7378755 73.1870614 82.1246538 69.0256834 82.1246538 L23.0526832 82.1246538 L18.3369018 78.39808 Z M15.4709944 9.47099442 L65.7898012 9.47099442 C67.2160484 9.47099442 68.3773892 10.6312175 68.3773892 12.0585824 L68.3773892 71.3394975 C68.3773892 72.7668625 67.2160484 73.9270855 65.7898012 73.9270855 L15.4709944 73.9270855 L15.4709944 9.47099442 Z M82.3917212 20.4830537 L81.0448341 20.4830537 L81.0448341 20.255033 C81.0448341 16.3630323 77.8782523 13.1964505 73.9873694 13.1964505 L72.8483836 13.1964505 L72.8483836 12.0585824 C72.8483836 8.1665818 69.6818018 5 65.7898012 5 L11 5 L11 78.39808 L29.9044822 95 L74.3014568 95 C82.6543921 95 89.4503037 88.2040885 89.4503037 79.8511531 L89.4503037 27.5427539 C89.4503037 23.6496355 86.2837219 20.4830537 82.3917212 20.4830537 L82.3917212 20.4830537 Z"
        fill="url(#o-5b8a788c4eb54f0fa627d1822ad41dc7)" fill-rule="evenodd"
        transform="matrix(1.0827052593231201, 0, 0, 1.0827052593231201, 36.090240478515625, 201.86473083496094)"
        data-uid="o-e12d283c9c1e4e909b87fa1885fdae5c"></path>
    <path text="my" text-anchor="start" font-size="100" letter-spacing="0" side="left" offset="0"
        dx="0" dy="0" space="preserve" href="" font-family="Bungee" font-scale="contain"
        transform="matrix(0.5008813738822937, 0, 0, 0.5008813738822937, 145.03875732421875, 255.74755859375)"
        x="0" y="0" fill="rgba(0,0,0,1)" data-fl-textpath="" id="_z5CNUfQuDwRMN9gngi9lT"
        data-uid="o-eda152b842b94e8cb55f3b8324ad9117"
        d="M 25.4 0L 25.4 0L 10.5 0Q 8.6 0  7.75-0.85Q 6.9-1.7  6.9-3.6L 6.9-3.6L 6.9-68.4Q 6.9-70.3  7.75-71.15Q 8.6-72  10.5-72L 10.5-72L 26.6-72Q 28.2-72  29.25-71.3Q 30.3-70.6  31.2-69L 31.2-69L 40.2-52.7Q 40.7-51.8  41.05-51.4Q 41.4-51  42-51L 42-51L 42.9-51Q 43.5-51  43.85-51.4Q 44.2-51.8  44.7-52.7L 44.7-52.7L 53.6-69Q 54.5-70.6  55.55-71.3Q 56.6-72  58.2-72L 58.2-72L 74.4-72Q 76.3-72  77.15-71.15Q 78-70.3  78-68.4L 78-68.4L 78-3.6Q 78-1.7  77.15-0.85Q 76.3 0  74.4 0L 74.4 0L 59 0Q 57.1 0  56.25-0.85Q 55.4-1.7  55.4-3.6L 55.4-3.6L 55.4-38.8L 49.5-27.9Q 48.6-26.2  47.35-25.45Q 46.1-24.7  44.2-24.7L 44.2-24.7L 40.2-24.7Q 38.3-24.7  37.05-25.45Q 35.8-26.2  34.9-27.9L 34.9-27.9L 29-38.8L 29-3.6Q 29-1.7  28.15-0.85Q 27.3 0  25.4 0ZM 128.3 0L 128.3 0L 112.1 0Q 110.2 0  109.35-0.85Q 108.5-1.7  108.5-3.6L 108.5-3.6L 108.5-16.4L 93.2-36.9Q 90.9-40  90.15-42.3Q 89.4-44.6  89.4-49.2L 89.4-49.2L 89.4-68.4Q 89.4-70.3  90.25-71.15Q 91.1-72  93-72L 93-72L 108.4-72Q 110.3-72  111.15-71.15Q 112-70.3  112-68.4L 112-68.4L 112-52Q 112-51  112.1-49.9Q 112.2-48.8  112.9-47.8L 112.9-47.8L 117.5-40.6Q 118-39.7  118.55-39.3Q 119.1-38.9  119.9-38.9L 119.9-38.9L 120.9-38.9Q 121.7-38.9  122.25-39.3Q 122.8-39.7  123.3-40.6L 123.3-40.6L 127.9-47.8Q 128.6-48.8  128.7-49.9Q 128.8-51  128.8-52L 128.8-52L 128.8-68.4Q 128.8-70.3  129.65-71.15Q 130.5-72  132.4-72L 132.4-72L 147.3-72Q 149.2-72  150.05-71.15Q 150.9-70.3  150.9-68.4L 150.9-68.4L 150.9-49.2Q 150.9-44.6  150.1-42.3Q 149.3-40  147.1-36.9L 147.1-36.9L 131.9-16.3L 131.9-3.6Q 131.9-1.7  131.05-0.85Q 130.2 0  128.3 0Z"></path>
    <path text="movie+app" text-anchor="start" font-size="100" letter-spacing="0" side="left"
        offset="0" dx="0" dy="0" space="preserve" href="" font-family="Bungee" font-scale="contain"
        transform="matrix(0.5008813738822937, 0, 0, 0.5008813738822937, 145.03875732421875, 297.82159423828125)"
        x="0" y="0" fill="rgba(0,0,0,1)" data-fl-textpath="" id="_9B6HNAF_VNN4vAPqAQQyX"
        data-uid="o-64c11efcfd2542749975e7fa669da016"
        d="M 25.4 0L 25.4 0L 10.5 0Q 8.6 0  7.75-0.85Q 6.9-1.7  6.9-3.6L 6.9-3.6L 6.9-68.4Q 6.9-70.3  7.75-71.15Q 8.6-72  10.5-72L 10.5-72L 26.6-72Q 28.2-72  29.25-71.3Q 30.3-70.6  31.2-69L 31.2-69L 40.2-52.7Q 40.7-51.8  41.05-51.4Q 41.4-51  42-51L 42-51L 42.9-51Q 43.5-51  43.85-51.4Q 44.2-51.8  44.7-52.7L 44.7-52.7L 53.6-69Q 54.5-70.6  55.55-71.3Q 56.6-72  58.2-72L 58.2-72L 74.4-72Q 76.3-72  77.15-71.15Q 78-70.3  78-68.4L 78-68.4L 78-3.6Q 78-1.7  77.15-0.85Q 76.3 0  74.4 0L 74.4 0L 59 0Q 57.1 0  56.25-0.85Q 55.4-1.7  55.4-3.6L 55.4-3.6L 55.4-38.8L 49.5-27.9Q 48.6-26.2  47.35-25.45Q 46.1-24.7  44.2-24.7L 44.2-24.7L 40.2-24.7Q 38.3-24.7  37.05-25.45Q 35.8-26.2  34.9-27.9L 34.9-27.9L 29-38.8L 29-3.6Q 29-1.7  28.15-0.85Q 27.3 0  25.4 0ZM 152.8-53L 152.8-18.9Q 152.8-14.3  151.45-10.55Q 150.1-6.8  146.65-4.15Q 143.2-1.5  137.15 0Q 131.1 1.5  121.8 1.5L 121.8 1.5Q 112.5 1.5  106.4 0Q 100.3-1.5  96.85-4.15Q 93.4-6.8  92.05-10.55Q 90.7-14.3  90.7-18.9L 90.7-18.9L 90.7-53Q 90.7-57.6  92.05-61.35Q 93.4-65.1  96.85-67.8Q 100.3-70.5  106.4-72Q 112.5-73.5  121.8-73.5L 121.8-73.5Q 131.1-73.5  137.15-72Q 143.2-70.5  146.65-67.8Q 150.1-65.1  151.45-61.35Q 152.8-57.6  152.8-53L 152.8-53ZM 113.4-49.4L 113.4-22.5Q 113.4-20.5  114.9-19.15Q 116.4-17.8  121.8-17.8L 121.8-17.8Q 127.2-17.8  128.7-19.15Q 130.2-20.5  130.2-22.5L 130.2-22.5L 130.2-49.4Q 130.2-51.3  128.7-52.65Q 127.2-54  121.8-54L 121.8-54Q 116.4-54  114.9-52.65Q 113.4-51.3  113.4-49.4L 113.4-49.4ZM 208.1 0L 208.1 0L 182.1 0Q 180.2 0  178.95-0.7Q 177.7-1.4  177-3.3L 177-3.3L 167.2-27.8Q 166.3-30  165.7-31.65Q 165.1-33.3  164.7-34.8Q 164.3-36.3  164.15-37.95Q 164-39.6  164-42L 164-42L 164-68.4Q 164-70.3  164.85-71.15Q 165.7-72  167.6-72L 167.6-72L 183.5-72Q 185.4-72  186.4-71.15Q 187.4-70.3  187.4-68.4L 187.4-68.4L 187.4-40.8Q 187.4-39.8  187.6-38.8Q 187.8-37.8  188.2-36.7L 188.2-36.7L 192.9-22.7Q 193.2-21.7  193.6-21.35Q 194-21  194.8-21L 194.8-21L 195.9-21Q 196.7-21  197.1-21.35Q 197.5-21.7  197.8-22.7L 197.8-22.7L 202.5-36.8Q 202.9-37.9  203.1-38.9Q 203.3-39.9  203.3-40.9L 203.3-40.9L 203.3-68.4Q 203.3-70.3  204.15-71.15Q 205-72  206.9-72L 206.9-72L 222.6-72Q 224.5-72  225.35-71.15Q 226.2-70.3  226.2-68.4L 226.2-68.4L 226.2-42Q 226.2-39.6  226.05-37.95Q 225.9-36.3  225.5-34.8Q 225.1-33.3  224.5-31.65Q 223.9-30  223-27.8L 223-27.8L 213.2-3.3Q 212.5-1.4  211.25-0.7Q 210 0  208.1 0ZM 283.1 0L 240.5 0Q 238.6 0  237.75-0.85Q 236.9-1.7  236.9-3.6L 236.9-3.6L 236.9-15.5Q 236.9-17.4  237.75-18.25Q 238.6-19.1  240.5-19.1L 240.5-19.1L 250.4-19.1L 250.4-52.7L 240.5-52.7Q 238.6-52.7  237.75-53.55Q 236.9-54.4  236.9-56.3L 236.9-56.3L 236.9-68.4Q 236.9-70.3  237.75-71.15Q 238.6-72  240.5-72L 240.5-72L 283.1-72Q 285-72  285.85-71.15Q 286.7-70.3  286.7-68.4L 286.7-68.4L 286.7-56.3Q 286.7-54.4  285.85-53.55Q 285-52.7  283.1-52.7L 283.1-52.7L 273.4-52.7L 273.4-19.1L 283.1-19.1Q 285-19.1  285.85-18.25Q 286.7-17.4  286.7-15.5L 286.7-15.5L 286.7-3.6Q 286.7-1.7  285.85-0.85Q 285 0  283.1 0L 283.1 0ZM 349 0L 349 0L 302.6 0Q 300.7 0  299.85-0.85Q 299-1.7  299-3.6L 299-3.6L 299-68.4Q 299-70.3  299.85-71.15Q 300.7-72  302.6-72L 302.6-72L 349-72Q 350.9-72  351.75-71.15Q 352.6-70.3  352.6-68.4L 352.6-68.4L 352.6-56.7Q 352.6-54.8  351.75-53.95Q 350.9-53.1  349-53.1L 349-53.1L 321.4-53.1L 321.4-45.4L 340.9-45.4Q 342.8-45.4  343.65-44.55Q 344.5-43.7  344.5-41.8L 344.5-41.8L 344.5-31.1Q 344.5-29.2  343.65-28.35Q 342.8-27.5  340.9-27.5L 340.9-27.5L 321.4-27.5L 321.4-18.9L 349-18.9Q 350.9-18.9  351.75-18.05Q 352.6-17.2  352.6-15.3L 352.6-15.3L 352.6-3.6Q 352.6-1.7  351.75-0.85Q 350.9 0  349 0ZM 404-26.7L 404-9.9Q 404-8  403.15-7.15Q 402.3-6.3  400.4-6.3L 400.4-6.3L 388-6.3Q 386.1-6.3  385.25-7.15Q 384.4-8  384.4-9.9L 384.4-9.9L 384.4-26.7L 368.1-26.7Q 366.2-26.7  365.35-27.55Q 364.5-28.4  364.5-30.3L 364.5-30.3L 364.5-41.7Q 364.5-43.6  365.35-44.45Q 366.2-45.3  368.1-45.3L 368.1-45.3L 384.4-45.3L 384.4-62.1Q 384.4-64  385.25-64.85Q 386.1-65.7  388-65.7L 388-65.7L 400.4-65.7Q 402.3-65.7  403.15-64.85Q 404-64  404-62.1L 404-62.1L 404-45.3L 420.3-45.3Q 422.2-45.3  423.05-44.45Q 423.9-43.6  423.9-41.7L 423.9-41.7L 423.9-30.3Q 423.9-28.4  423.05-27.55Q 422.2-26.7  420.3-26.7L 420.3-26.7L 404-26.7ZM 463.9-51L 463.9-51L 459.2-35.8L 474.9-35.8L 470.2-51Q 469.8-51.9  469.35-52.3Q 468.9-52.7  468.3-52.7L 468.3-52.7L 465.8-52.7Q 465.2-52.7  464.75-52.3Q 464.3-51.9  463.9-51ZM 458.2-17.6L 458.2-3.6Q 458.2-1.7  457.35-0.85Q 456.5 0  454.6 0L 454.6 0L 439.9 0Q 438 0  437.15-0.85Q 436.3-1.7  436.3-3.6L 436.3-3.6L 436.3-30Q 436.3-33  437.25-36.9Q 438.2-40.8  440.2-46L 440.2-46L 448.9-68.7Q 449.5-70.4  450.75-71.2Q 452-72  454-72L 454-72L 480.9-72Q 482.8-72  484.05-71.2Q 485.3-70.4  485.9-68.7L 485.9-68.7L 494.6-46Q 496.6-40.8  497.55-36.9Q 498.5-33  498.5-30L 498.5-30L 498.5-3.6Q 498.5-1.7  497.65-0.85Q 496.8 0  494.9 0L 494.9 0L 479.8 0Q 477.8 0  476.85-0.85Q 475.9-1.7  475.9-3.6L 475.9-3.6L 475.9-17.6L 458.2-17.6ZM 529.9 0L 529.9 0L 514.4 0Q 512.5 0  511.65-0.85Q 510.8-1.7  510.8-3.6L 510.8-3.6L 510.8-68.4Q 510.8-70.3  511.65-71.15Q 512.5-72  514.4-72L 514.4-72L 545-72Q 558.6-72  563.6-66.6Q 568.6-61.2  568.6-52.5L 568.6-52.5L 568.6-39.7Q 568.6-31  563.6-25.6Q 558.6-20.2  545-20.2L 545-20.2L 533.5-20.2L 533.5-3.6Q 533.5-1.7  532.65-0.85Q 531.8 0  529.9 0ZM 542.3-53.3L 533.3-53.3L 533.3-38.2L 542.3-38.2Q 545.2-38.2  546.1-39.7Q 547-41.2  547-43.1L 547-43.1L 547-48.4Q 547-50.3  546.1-51.8Q 545.2-53.3  542.3-53.3L 542.3-53.3ZM 598.1 0L 598.1 0L 582.6 0Q 580.7 0  579.85-0.85Q 579-1.7  579-3.6L 579-3.6L 579-68.4Q 579-70.3  579.85-71.15Q 580.7-72  582.6-72L 582.6-72L 613.2-72Q 626.8-72  631.8-66.6Q 636.8-61.2  636.8-52.5L 636.8-52.5L 636.8-39.7Q 636.8-31  631.8-25.6Q 626.8-20.2  613.2-20.2L 613.2-20.2L 601.7-20.2L 601.7-3.6Q 601.7-1.7  600.85-0.85Q 600 0  598.1 0ZM 610.5-53.3L 601.5-53.3L 601.5-38.2L 610.5-38.2Q 613.4-38.2  614.3-39.7Q 615.2-41.2  615.2-43.1L 615.2-43.1L 615.2-48.4Q 615.2-50.3  614.3-51.8Q 613.4-53.3  610.5-53.3L 610.5-53.3Z"></path>
</svg>